<?xml version="1.0" standalone="no"?>
<!DOCTYPE svg PUBLIC "-//W3C//DTD SVG 20010904//EN"
 "http://www.w3.org/TR/2001/REC-SVG-20010904/DTD/svg10.dtd">
<svg version="1.0" xmlns="http://www.w3.org/2000/svg"
 width="107.000000pt" height="42.000000pt" viewBox="0 0 107.000000 42.000000"
 preserveAspectRatio="xMidYMid meet">

<g transform="translate(0.000000,42.000000) scale(0.100000,-0.100000)"
fill="#000000" stroke="none">
<path d="M214 409 c-10 -17 13 -36 27 -22 12 12 4 33 -11 33 -5 0 -12 -5 -16
-11z"/>
<path d="M390 335 c0 -60 3 -75 15 -75 10 0 15 10 15 33 0 40 22 73 40 62 9
-5 11 -24 7 -61 -3 -30 -2 -54 3 -54 13 0 41 81 35 101 -9 28 -41 42 -65 29
-18 -9 -20 -8 -20 15 0 16 -6 25 -15 25 -12 0 -15 -15 -15 -75z"/>
<path d="M21 334 c-7 -37 -9 -69 -6 -72 11 -11 24 14 27 53 l4 40 14 -48 c12
-38 18 -47 34 -45 15 2 23 16 32 48 l11 45 8 -47 c6 -39 11 -48 27 -48 20 0
21 13 2 113 -9 45 -39 35 -54 -19 -14 -50 -22 -48 -40 9 -8 25 -18 37 -30 37
-14 0 -20 -13 -29 -66z"/>
<path d="M292 369 c-35 -14 -26 -51 16 -63 17 -5 32 -16 32 -24 0 -13 -11 -13
-45 -1 -6 2 -12 0 -15 -6 -7 -15 59 -18 76 -4 25 20 15 39 -28 58 -36 16 -40
20 -24 26 10 5 27 3 37 -3 11 -7 20 -8 24 -2 5 8 -37 33 -48 29 -1 0 -12 -4
-25 -10z"/>
<path d="M567 363 c-11 -11 -17 -13 -17 -5 0 7 -4 12 -10 12 -5 0 -10 -25 -10
-55 0 -42 3 -55 15 -55 11 0 15 11 15 38 0 49 13 70 33 53 12 -9 17 -9 22 0 4
6 1 15 -6 20 -19 12 -22 11 -42 -8z"/>
<path d="M650 360 c-22 -22 -26 -51 -10 -80 8 -16 21 -19 60 -19 l50 2 0 53
c0 30 -4 54 -10 54 -5 0 -10 -5 -10 -11 0 -5 -10 -3 -22 5 -29 20 -34 20 -58
-4z m55 -46 c0 -28 -4 -39 -15 -39 -22 0 -37 50 -20 70 20 25 35 12 35 -31z"/>
<path d="M210 315 c0 -48 2 -55 20 -55 18 0 20 7 20 55 0 48 -2 55 -20 55 -18
0 -20 -7 -20 -55z"/>
<path d="M634 179 c-10 -17 13 -36 27 -22 12 12 4 33 -11 33 -5 0 -12 -5 -16
-11z"/>
<path d="M550 161 c0 -11 -6 -22 -12 -24 -10 -4 -10 -6 0 -6 8 -1 12 -18 12
-51 0 -38 4 -50 15 -50 11 0 15 12 15 50 0 45 2 50 23 51 l22 0 -22 9 c-13 5
-23 16 -23 25 0 8 -7 15 -15 15 -8 0 -15 -9 -15 -19z"/>
<path d="M30 150 c-26 -26 -26 -74 0 -100 24 -24 82 -27 100 -5 18 22 5 31
-15 11 -20 -20 -29 -20 -49 0 -20 20 -20 68 0 88 20 20 29 20 49 0 20 -20 33
-11 15 11 -18 22 -76 19 -100 -5z"/>
<path d="M206 135 c-9 -9 -17 -11 -21 -5 -15 24 -25 6 -25 -45 0 -48 2 -55 20
-55 17 0 20 7 20 44 0 48 13 65 35 46 10 -8 15 -8 20 1 4 6 1 15 -6 20 -19 12
-25 11 -43 -6z"/>
<path d="M284 125 c-26 -26 -26 -52 -1 -83 13 -16 79 -12 85 6 3 11 0 11 -16
1 -17 -11 -24 -10 -38 2 -16 13 -15 14 16 19 18 3 38 13 44 23 9 15 7 22 -13
38 -31 25 -47 24 -77 -6z m61 -20 c0 -13 -8 -21 -22 -23 -17 -3 -23 2 -23 16
0 10 3 22 7 26 13 13 38 1 38 -19z"/>
<path d="M415 125 c-29 -28 -31 -42 -10 -72 12 -18 25 -22 60 -21 l45 1 0 54
c0 46 -2 53 -14 44 -10 -9 -16 -8 -26 4 -17 21 -27 19 -55 -10z m59 -11 c15
-39 -3 -78 -30 -67 -14 5 -20 64 -7 76 11 12 31 7 37 -9z"/>
<path d="M730 143 c-63 -22 -47 -113 20 -113 36 0 60 24 60 59 0 39 -42 67
-80 54z m46 -40 c8 -29 -6 -58 -26 -58 -20 0 -34 29 -26 58 9 37 43 37 52 0z"/>
<path d="M883 135 c-14 -10 -24 -12 -28 -5 -15 24 -25 6 -25 -45 0 -48 2 -55
20 -55 17 0 20 7 20 45 0 33 5 47 16 52 31 12 40 -43 17 -103 -10 -27 17 -14
32 17 20 38 16 78 -10 95 -18 12 -24 11 -42 -1z"/>
<path d="M992 139 c-35 -14 -26 -51 16 -63 17 -5 32 -15 32 -22 0 -17 -32 -18
-48 -2 -13 13 -27 5 -17 -11 9 -16 71 -13 85 4 18 21 6 43 -30 52 -36 10 -44
27 -12 31 12 2 22 -2 22 -8 0 -6 5 -8 12 -4 7 5 5 11 -7 21 -21 15 -22 15 -53
2z"/>
<path d="M630 85 c0 -48 2 -55 20 -55 18 0 20 7 20 55 0 48 -2 55 -20 55 -18
0 -20 -7 -20 -55z"/>
</g>
</svg>
